<svg width="1855" height="3173" viewBox="0 0 1855 3173" fill="none" xmlns="http://www.w3.org/2000/svg">
<path d="M1281.18 1786.76L1558.5 1626.37L1835.82 1786.76V2107.53L1558.5 2267.92L1281.18 2107.53V1786.76Z" stroke="white"/>
<path d="M1267.18 2690.76L1544.5 2530.37L1821.82 2690.76V3011.53L1544.5 3171.92L1267.18 3011.53V2690.76Z" stroke="white"/>
<path d="M123.177 914.757L400.5 754.37L677.824 914.757V1235.53L400.5 1395.92L123.177 1235.53V914.757Z" stroke="white"/>
<path d="M123.177 2266.76L400.5 2106.37L677.824 2266.76V2587.53L400.5 2747.92L123.177 2587.53V2266.76Z" stroke="white"/>
<path d="M1621.78 228.013L1738 160.767L1854.22 228.013V362.503L1738 429.749L1621.78 362.503V228.013Z" stroke="white"/>
<path d="M1745.42 347.614L1786.31 323.958L1827.21 347.614V394.924L1786.31 418.579L1745.42 394.924V347.614Z" stroke="white"/>
<path d="M81.24 578.64C93.4133 578.64 104.487 580.18 114.46 583.26C124.287 586.193 132.793 590.74 139.98 596.9C147.167 602.913 152.667 610.687 156.48 620.22C160.293 629.607 162.2 640.68 162.2 653.44C162.2 666.2 160.293 677.347 156.48 686.88C152.52 696.267 147.02 704.04 139.98 710.2C132.793 716.213 124.213 720.76 114.24 723.84C104.267 726.773 93.1933 728.24 81.02 728.24C64.74 728.24 50.5866 725.6 38.56 720.32C26.5333 714.893 17.22 706.68 10.62 695.68C3.87333 684.533 0.499996 670.38 0.499996 653.22C0.499996 636.207 3.87333 622.2 10.62 611.2C17.22 600.2 26.6067 592.06 38.78 586.78C50.8067 581.353 64.96 578.64 81.24 578.64ZM81.24 693.26C92.24 693.26 101.7 691.867 109.62 689.08C117.54 686.293 123.627 681.967 127.88 676.1C132.133 670.233 134.26 662.68 134.26 653.44C134.26 643.907 132.133 636.28 127.88 630.56C123.627 624.693 117.54 620.44 109.62 617.8C101.7 615.013 92.24 613.62 81.24 613.62C64.6666 613.62 51.6866 616.7 42.3 622.86C32.9133 629.02 28.22 639.14 28.22 653.22C28.22 662.607 30.3466 670.233 34.6 676.1C38.8533 681.967 44.94 686.293 52.86 689.08C60.78 691.867 70.24 693.26 81.24 693.26ZM160 362.402V395.622H92.24L92.24 457.882H160V491.102H2.91999L2.91999 457.882H64.52V395.622H2.91999L2.91999 362.402H160ZM160 226.74L122.6 238.18V295.38L160 306.82V342.68L2.26 287.24L2.26 246.54L160 190.88V226.74ZM58.14 257.54C55.6466 258.273 52.4933 259.226 48.68 260.4C44.8667 261.573 40.98 262.746 37.02 263.92C33.06 265.093 29.6133 266.046 26.68 266.78C29.6133 267.513 33.28 268.54 37.68 269.86C41.9333 271.033 46.04 272.206 50 273.38C53.8133 274.406 56.5266 275.213 58.14 275.8L94.66 287.02V246.1L58.14 257.54ZM28.44 104.325C28.44 110.632 29.6866 116.279 32.18 121.265C34.6733 126.105 38.2667 130.212 42.96 133.585C47.5066 136.959 53.08 139.525 59.68 141.285C66.28 142.899 73.6866 143.705 81.9 143.705C93.0466 143.705 102.58 142.385 110.5 139.745C118.273 136.959 124.213 132.632 128.32 126.765C132.427 120.899 134.48 113.419 134.48 104.325C134.48 97.872 133.747 91.492 132.28 85.1853C130.813 78.732 128.76 71.7653 126.12 64.2853H154.06C156.847 71.1787 158.9 77.9987 160.22 84.7453C161.54 91.492 162.2 99.0453 162.2 107.405C162.2 123.539 158.9 136.885 152.3 147.445C145.553 157.859 136.167 165.559 124.14 170.545C111.967 175.532 97.8133 178.025 81.68 178.025C69.8 178.025 58.9466 176.412 49.12 173.185C39.1467 169.959 30.5667 165.265 23.38 159.105C16.1933 152.799 10.62 145.099 6.65999 136.005C2.69999 126.765 0.719993 116.205 0.719993 104.325C0.719993 96.552 1.74666 88.7787 3.79999 81.0053C5.70666 73.0853 8.34666 65.532 11.72 58.3453L38.78 69.1253C35.9933 74.992 33.5733 80.932 31.52 86.9453C29.4666 92.812 28.44 98.6053 28.44 104.325Z" fill="white" fill-opacity="0.12"/>
<path d="M198 873.9H133.74L133.74 823.05H198V836.64H145.08V860.31H198V873.9ZM165.78 748.519C170.76 748.519 175.29 749.149 179.37 750.409C183.39 751.609 186.87 753.469 189.81 755.989C192.75 758.449 195 761.629 196.56 765.529C198.12 769.369 198.9 773.899 198.9 779.119C198.9 784.339 198.12 788.899 196.56 792.799C194.94 796.639 192.69 799.819 189.81 802.339C186.87 804.799 183.36 806.659 179.28 807.919C175.2 809.119 170.67 809.719 165.69 809.719C159.03 809.719 153.24 808.639 148.32 806.479C143.4 804.259 139.59 800.899 136.89 796.399C134.13 791.839 132.75 786.049 132.75 779.029C132.75 772.069 134.13 766.339 136.89 761.839C139.59 757.339 143.43 754.009 148.41 751.849C153.33 749.629 159.12 748.519 165.78 748.519ZM165.78 795.409C170.28 795.409 174.15 794.839 177.39 793.699C180.63 792.559 183.12 790.789 184.86 788.389C186.6 785.989 187.47 782.899 187.47 779.119C187.47 775.219 186.6 772.099 184.86 769.759C183.12 767.359 180.63 765.619 177.39 764.539C174.15 763.399 170.28 762.829 165.78 762.829C159 762.829 153.69 764.089 149.85 766.609C146.01 769.129 144.09 773.269 144.09 779.029C144.09 782.869 144.96 785.989 146.7 788.389C148.44 790.789 150.93 792.559 154.17 793.699C157.41 794.839 161.28 795.409 165.78 795.409ZM133.74 686.656H186.66L186.66 678.106L216.72 678.106L216.72 691.246H198V731.476H216.72V744.616L186.66 744.616V739.666C183.3 737.986 179.76 736.366 176.04 734.806C172.32 733.246 168.33 731.806 164.07 730.486C159.81 729.106 155.19 727.876 150.21 726.796C145.17 725.716 139.68 724.816 133.74 724.096V686.656ZM145.08 713.296C148.2 713.716 151.53 714.316 155.07 715.096C158.55 715.876 162.12 716.806 165.78 717.886C169.44 718.906 173.04 720.046 176.58 721.306C180.12 722.566 183.48 723.916 186.66 725.356V700.246H145.08V713.296ZM133.74 647.716C133.74 639.436 135.54 633.406 139.14 629.626C142.68 625.786 147.57 623.866 153.81 623.866C156.63 623.866 159.33 624.286 161.91 625.126C164.43 625.966 166.71 627.376 168.75 629.356C170.73 631.276 172.29 633.826 173.43 637.006C174.57 640.186 175.14 644.116 175.14 648.796V654.646L198 654.646V668.236H133.74V647.716ZM144.9 648.436V654.646H163.98V650.146C163.98 647.566 163.65 645.346 162.99 643.486C162.33 641.626 161.28 640.186 159.84 639.166C158.4 638.146 156.54 637.636 154.26 637.636C151.08 637.636 148.74 638.506 147.24 640.246C145.68 641.986 144.9 644.716 144.9 648.436ZM198 576.875L182.7 581.555V604.955L198 609.635V624.305L133.47 601.625V584.975L198 562.205V576.875ZM156.33 589.475C155.31 589.775 154.02 590.165 152.46 590.645C150.9 591.125 149.31 591.605 147.69 592.085C146.07 592.565 144.66 592.955 143.46 593.255C144.66 593.555 146.16 593.975 147.96 594.515C149.7 594.995 151.38 595.475 153 595.955C154.56 596.375 155.67 596.705 156.33 596.945L171.27 601.535V584.795L156.33 589.475ZM148.77 509.696C153.09 509.696 156.57 511.226 159.21 514.286C161.85 517.346 163.5 521.246 164.16 525.986H164.43C165.03 520.106 166.68 515.606 169.38 512.486C172.02 509.306 175.47 507.716 179.73 507.716C183.45 507.716 186.78 508.736 189.72 510.776C192.6 512.816 194.85 515.846 196.47 519.866C198.09 523.886 198.9 528.866 198.9 534.806C198.9 539.666 198.6 543.986 198 547.766C197.4 551.486 196.53 554.726 195.39 557.486H183.96C184.86 555.626 185.64 553.526 186.3 551.186C186.9 548.846 187.38 546.476 187.74 544.076C188.04 541.676 188.19 539.456 188.19 537.416C188.19 531.716 187.38 527.606 185.76 525.086C184.08 522.506 181.74 521.216 178.74 521.216C175.68 521.216 173.46 523.076 172.08 526.796C170.64 530.516 169.92 535.526 169.92 541.826V547.856H159.3V542.456C159.3 537.356 158.97 533.396 158.31 530.576C157.65 527.756 156.69 525.776 155.43 524.636C154.17 523.496 152.67 522.926 150.93 522.926C148.71 522.926 146.97 523.916 145.71 525.896C144.39 527.816 143.73 530.726 143.73 534.626C143.73 537.926 144.21 541.046 145.17 543.986C146.13 546.866 147.39 549.566 148.95 552.086L139.86 558.026C138.42 555.806 137.19 553.466 136.17 551.006C135.09 548.486 134.28 545.726 133.74 542.726C133.14 539.726 132.84 536.396 132.84 532.736C132.84 527.876 133.53 523.736 134.91 520.316C136.29 516.896 138.18 514.286 140.58 512.486C142.92 510.626 145.65 509.696 148.77 509.696ZM133.74 445.397H186.66V436.847H216.72V449.987H198V490.217H216.72V503.357H186.66V498.407C183.3 496.727 179.76 495.107 176.04 493.547C172.32 491.987 168.33 490.547 164.07 489.227C159.81 487.847 155.19 486.617 150.21 485.537C145.17 484.457 139.68 483.557 133.74 482.837V445.397ZM145.08 472.037C148.2 472.457 151.53 473.057 155.07 473.837C158.55 474.617 162.12 475.547 165.78 476.627C169.44 477.647 173.04 478.787 176.58 480.047C180.12 481.307 183.48 482.657 186.66 484.097V458.987H145.08V472.037ZM198 389.986V426.976H133.74L133.74 389.986H144.9V413.386H159.03V391.606H170.19V413.386H186.75V389.986H198ZM198 325.765V339.355H145.08V355.105C147.84 355.465 150.84 355.855 154.08 356.275C157.32 356.635 160.62 357.055 163.98 357.535C167.28 357.955 170.43 358.405 173.43 358.885C176.37 359.365 178.98 359.845 181.26 360.325C184.98 361.105 188.16 362.155 190.8 363.475C193.44 364.735 195.45 366.505 196.83 368.785C198.21 371.005 198.9 373.915 198.9 377.515C198.9 378.715 198.81 379.855 198.63 380.935C198.45 382.015 198.21 383.035 197.91 383.995H186.75C186.99 383.215 187.2 382.465 187.38 381.745C187.56 380.965 187.65 380.125 187.65 379.225C187.65 378.025 187.26 377.035 186.48 376.255C185.7 375.475 184.38 374.785 182.52 374.185C180.6 373.585 177.96 372.985 174.6 372.385C173.16 372.085 171.12 371.725 168.48 371.305C165.78 370.885 162.63 370.405 159.03 369.865C155.37 369.265 151.41 368.665 147.15 368.065C142.83 367.465 138.36 366.895 133.74 366.355V325.765H198ZM198 272.564V309.554H133.74V272.564H144.9L144.9 295.964H159.03V274.184H170.19V295.964H186.75V272.564H198ZM198 206.543V220.133H170.28V245.603H198V259.193H133.74V245.603H158.94V220.133H133.74V206.543H198ZM133.74 190.375V178.135H164.79C166.29 178.135 167.97 178.165 169.83 178.225C171.69 178.285 173.52 178.345 175.32 178.405C177.06 178.465 178.59 178.525 179.91 178.585C181.17 178.645 182.04 178.705 182.52 178.765V178.495L133.74 148.795V132.505H198V144.655H167.13C165.51 144.655 163.74 144.625 161.82 144.565C159.84 144.505 157.95 144.445 156.15 144.385C154.35 144.265 152.79 144.175 151.47 144.115C150.09 143.995 149.19 143.905 148.77 143.845V144.205L198 173.995V190.375H133.74ZM173.34 94.6828L198 109.713L198 124.833L169.74 106.563C169.02 108.303 167.97 110.043 166.59 111.783C165.15 113.523 163.26 114.963 160.92 116.103C158.52 117.243 155.58 117.813 152.1 117.813C146.16 117.813 141.63 115.683 138.51 111.423C135.33 107.163 133.74 101.193 133.74 93.5128L133.74 72.6328H198V86.2228H173.34V94.6828ZM144.9 92.9728C144.9 95.3128 145.17 97.3228 145.71 99.0028C146.25 100.623 147.12 101.883 148.32 102.783C149.52 103.623 151.11 104.043 153.09 104.043C155.91 104.043 158.16 103.113 159.84 101.253C161.46 99.3328 162.27 96.4528 162.27 92.6128V86.2228H144.9V92.9728Z" fill="white"/>
</svg>
