<svg width="1920" height="1024" viewBox="0 0 1920 1024" fill="none" xmlns="http://www.w3.org/2000/svg">
<path d="M714.377 1032.59C1446.94 989.841 1717.92 404.045 614.099 -151.709C1471.44 770.89 734.851 629.752 73.6691 1032.59H714.377Z" fill="#EBDEDE"/>
<path d="M219.11 1032.59C1126.97 1093.25 2531.63 -9.01509 1476.8 -310C2488 125.013 468.657 835.015 -66 835.015V1032.59H219.11Z" fill="#E6B1B1" fill-opacity="0.34"/>
<path d="M1606.89 389.32L1725 320.854L1843.11 389.32V526.252L1725 594.719L1606.89 526.252V389.32Z" stroke="#005A7C"/>
<path d="M1340.19 475.355L1600.5 324.682L1860.82 475.355V776.7L1600.5 927.376L1340.19 776.7V475.355Z" stroke="#005A7C"/>
<path d="M73.0315 229.555L245 130.054L416.969 229.555V428.557L245 528.059L73.0315 428.557V229.555Z" stroke="#005A7C"/>
<path d="M-87.7 986H-120.92V856.64H-163.6V828.92H-45.02V856.64H-87.7V986ZM29.3623 828.92C49.6023 828.92 64.3424 833.32 73.5824 842.12C82.969 850.773 87.6623 862.727 87.6623 877.98C87.6623 884.873 86.6357 891.473 84.5823 897.78C82.529 903.94 79.0823 909.513 74.2423 914.5C69.549 919.34 63.3157 923.153 55.5423 925.94C47.769 928.727 38.1623 930.12 26.7223 930.12H12.4223V986H-20.7977V828.92H29.3623ZM27.6023 856.2H12.4223V902.84H23.4223C29.729 902.84 35.1557 902.033 39.7023 900.42C44.249 898.807 47.769 896.24 50.2623 892.72C52.7557 889.2 54.0023 884.653 54.0023 879.08C54.0023 871.307 51.8757 865.587 47.6223 861.92C43.369 858.107 36.6957 856.2 27.6023 856.2ZM194.787 940.02C190.387 949.993 185.694 958.647 180.707 965.98C175.867 973.167 169.634 978.667 162.007 982.48C154.38 986.293 144.407 988.2 132.087 988.2C128.274 988.2 124.094 987.907 119.547 987.32C115 986.733 110.82 985.927 107.007 984.9V956.3C110.527 957.767 114.414 958.793 118.667 959.38C122.92 959.967 126.88 960.26 130.547 960.26C135.387 960.26 139.274 959.453 142.207 957.84C145.287 956.227 147.707 954.027 149.467 951.24C151.374 948.307 152.914 945.153 154.087 941.78L99.7469 828.92H134.947L164.207 896.9C164.94 898.367 165.82 900.273 166.847 902.62C167.874 904.967 168.9 907.387 169.927 909.88C170.954 912.373 171.76 914.573 172.347 916.48H173.447C174.034 914.72 174.767 912.593 175.647 910.1C176.674 907.46 177.7 904.82 178.727 902.18C179.9 899.393 180.927 896.973 181.807 894.92L209.087 828.92H243.407L194.787 940.02ZM375.249 828.92V958.28H396.149V1031.76H364.029V986H265.689V1031.76H233.569V958.28H245.669C249.775 950.067 253.735 941.413 257.549 932.32C261.362 923.227 264.882 913.473 268.109 903.06C271.482 892.647 274.489 881.353 277.129 869.18C279.769 856.86 281.969 843.44 283.729 828.92H375.249ZM310.129 856.64C309.102 864.267 307.635 872.407 305.729 881.06C303.822 889.567 301.549 898.293 298.909 907.24C296.415 916.187 293.629 924.987 290.549 933.64C287.469 942.293 284.169 950.507 280.649 958.28H342.029V856.64H310.129ZM562.837 907.24C562.837 919.413 561.297 930.487 558.217 940.46C555.283 950.287 550.737 958.793 544.577 965.98C538.563 973.167 530.79 978.667 521.257 982.48C511.87 986.293 500.797 988.2 488.037 988.2C475.277 988.2 464.13 986.293 454.597 982.48C445.21 978.52 437.437 973.02 431.277 965.98C425.263 958.793 420.717 950.213 417.637 940.24C414.703 930.267 413.237 919.193 413.237 907.02C413.237 890.74 415.877 876.587 421.157 864.56C426.583 852.533 434.797 843.22 445.797 836.62C456.943 829.873 471.097 826.5 488.257 826.5C505.27 826.5 519.277 829.873 530.277 836.62C541.277 843.22 549.417 852.607 554.697 864.78C560.123 876.807 562.837 890.96 562.837 907.24ZM448.217 907.24C448.217 918.24 449.61 927.7 452.397 935.62C455.183 943.54 459.51 949.627 465.377 953.88C471.243 958.133 478.797 960.26 488.037 960.26C497.57 960.26 505.197 958.133 510.917 953.88C516.783 949.627 521.037 943.54 523.677 935.62C526.463 927.7 527.857 918.24 527.857 907.24C527.857 890.667 524.777 877.687 518.617 868.3C512.457 858.913 502.337 854.22 488.257 854.22C478.87 854.22 471.243 856.347 465.377 860.6C459.51 864.853 455.183 870.94 452.397 878.86C449.61 886.78 448.217 896.24 448.217 907.24ZM668.517 940.02C664.117 949.993 659.424 958.647 654.437 965.98C649.597 973.167 643.364 978.667 635.737 982.48C628.111 986.293 618.137 988.2 605.817 988.2C602.004 988.2 597.824 987.907 593.277 987.32C588.731 986.733 584.551 985.927 580.737 984.9V956.3C584.257 957.767 588.144 958.793 592.397 959.38C596.651 959.967 600.611 960.26 604.277 960.26C609.117 960.26 613.004 959.453 615.937 957.84C619.017 956.227 621.437 954.027 623.197 951.24C625.104 948.307 626.644 945.153 627.817 941.78L573.477 828.92H608.677L637.937 896.9C638.671 898.367 639.551 900.273 640.577 902.62C641.604 904.967 642.631 907.387 643.657 909.88C644.684 912.373 645.491 914.573 646.077 916.48H647.177C647.764 914.72 648.497 912.593 649.377 910.1C650.404 907.46 651.431 904.82 652.457 902.18C653.631 899.393 654.657 896.973 655.537 894.92L682.817 828.92H717.137L668.517 940.02ZM801.468 854.44C795.161 854.44 789.514 855.687 784.528 858.18C779.688 860.673 775.581 864.267 772.208 868.96C768.834 873.507 766.268 879.08 764.508 885.68C762.894 892.28 762.088 899.687 762.088 907.9C762.088 919.047 763.408 928.58 766.048 936.5C768.834 944.273 773.161 950.213 779.028 954.32C784.894 958.427 792.374 960.48 801.468 960.48C807.921 960.48 814.301 959.747 820.608 958.28C827.061 956.813 834.028 954.76 841.508 952.12V980.06C834.614 982.847 827.794 984.9 821.048 986.22C814.301 987.54 806.748 988.2 798.388 988.2C782.254 988.2 768.908 984.9 758.348 978.3C747.934 971.553 740.234 962.167 735.248 950.14C730.261 937.967 727.768 923.813 727.768 907.68C727.768 895.8 729.381 884.947 732.608 875.12C735.834 865.147 740.528 856.567 746.688 849.38C752.994 842.193 760.694 836.62 769.788 832.66C779.028 828.7 789.588 826.72 801.468 826.72C809.241 826.72 817.014 827.747 824.788 829.8C832.708 831.707 840.261 834.347 847.448 837.72L836.668 864.78C830.801 861.993 824.861 859.573 818.848 857.52C812.981 855.467 807.188 854.44 801.468 854.44ZM935.386 986H902.166V856.64H859.486V828.92H978.066V856.64H935.386V986ZM1052.45 828.92C1072.69 828.92 1087.43 833.32 1096.67 842.12C1106.05 850.773 1110.75 862.727 1110.75 877.98C1110.75 884.873 1109.72 891.473 1107.67 897.78C1105.61 903.94 1102.17 909.513 1097.33 914.5C1092.63 919.34 1086.4 923.153 1078.63 925.94C1070.85 928.727 1061.25 930.12 1049.81 930.12H1035.51V986H1002.29V828.92H1052.45ZM1050.69 856.2H1035.51V902.84H1046.51C1052.81 902.84 1058.24 902.033 1062.79 900.42C1067.33 898.807 1070.85 896.24 1073.35 892.72C1075.84 889.2 1077.09 884.653 1077.09 879.08C1077.09 871.307 1074.96 865.587 1070.71 861.92C1066.45 858.107 1059.78 856.2 1050.69 856.2ZM1282.99 907.24C1282.99 919.413 1281.45 930.487 1278.37 940.46C1275.44 950.287 1270.89 958.793 1264.73 965.98C1258.72 973.167 1250.95 978.667 1241.41 982.48C1232.03 986.293 1220.95 988.2 1208.19 988.2C1195.43 988.2 1184.29 986.293 1174.75 982.48C1165.37 978.52 1157.59 973.02 1151.43 965.98C1145.42 958.793 1140.87 950.213 1137.79 940.24C1134.86 930.267 1133.39 919.193 1133.39 907.02C1133.39 890.74 1136.03 876.587 1141.31 864.56C1146.74 852.533 1154.95 843.22 1165.95 836.62C1177.1 829.873 1191.25 826.5 1208.41 826.5C1225.43 826.5 1239.43 829.873 1250.43 836.62C1261.43 843.22 1269.57 852.607 1274.85 864.78C1280.28 876.807 1282.99 890.96 1282.99 907.24ZM1168.37 907.24C1168.37 918.24 1169.77 927.7 1172.55 935.62C1175.34 943.54 1179.67 949.627 1185.53 953.88C1191.4 958.133 1198.95 960.26 1208.19 960.26C1217.73 960.26 1225.35 958.133 1231.07 953.88C1236.94 949.627 1241.19 943.54 1243.83 935.62C1246.62 927.7 1248.01 918.24 1248.01 907.24C1248.01 890.667 1244.93 877.687 1238.77 868.3C1232.61 858.913 1222.49 854.22 1208.41 854.22C1199.03 854.22 1191.4 856.347 1185.53 860.6C1179.67 864.853 1175.34 870.94 1172.55 878.86C1169.77 886.78 1168.37 896.24 1168.37 907.24ZM1442.03 777.22C1441.3 784.847 1439.17 791.593 1435.65 797.46C1432.13 803.18 1426.63 807.653 1419.15 810.88C1411.67 814.107 1401.62 815.72 1389.01 815.72C1376.1 815.72 1365.98 814.18 1358.65 811.1C1351.46 807.873 1346.33 803.4 1343.25 797.68C1340.17 791.96 1338.34 785.14 1337.75 777.22H1367.01C1367.74 785.287 1369.8 790.64 1373.17 793.28C1376.54 795.92 1382.04 797.24 1389.67 797.24C1395.98 797.24 1401.11 795.847 1405.07 793.06C1409.18 790.127 1411.6 784.847 1412.33 777.22H1442.03ZM1315.53 828.92H1345.45V904.82C1345.45 908.487 1345.38 912.593 1345.23 917.14C1345.08 921.687 1344.94 926.16 1344.79 930.56C1344.64 934.813 1344.5 938.553 1344.35 941.78C1344.2 944.86 1344.06 946.987 1343.91 948.16H1344.57L1417.17 828.92H1456.99V986H1427.29V910.54C1427.29 906.58 1427.36 902.253 1427.51 897.56C1427.66 892.72 1427.8 888.1 1427.95 883.7C1428.24 879.3 1428.46 875.487 1428.61 872.26C1428.9 868.887 1429.12 866.687 1429.27 865.66H1428.39L1355.57 986H1315.53V828.92ZM1563.3 854.44C1557 854.44 1551.35 855.687 1546.36 858.18C1541.52 860.673 1537.42 864.267 1534.04 868.96C1530.67 873.507 1528.1 879.08 1526.34 885.68C1524.73 892.28 1523.92 899.687 1523.92 907.9C1523.92 919.047 1525.24 928.58 1527.88 936.5C1530.67 944.273 1535 950.213 1540.86 954.32C1546.73 958.427 1554.21 960.48 1563.3 960.48C1569.76 960.48 1576.14 959.747 1582.44 958.28C1588.9 956.813 1595.86 954.76 1603.34 952.12V980.06C1596.45 982.847 1589.63 984.9 1582.88 986.22C1576.14 987.54 1568.58 988.2 1560.22 988.2C1544.09 988.2 1530.74 984.9 1520.18 978.3C1509.77 971.553 1502.07 962.167 1497.08 950.14C1492.1 937.967 1489.6 923.813 1489.6 907.68C1489.6 895.8 1491.22 884.947 1494.44 875.12C1497.67 865.147 1502.36 856.567 1508.52 849.38C1514.83 842.193 1522.53 836.62 1531.62 832.66C1540.86 828.7 1551.42 826.72 1563.3 826.72C1571.08 826.72 1578.85 827.747 1586.62 829.8C1594.54 831.707 1602.1 834.347 1609.28 837.72L1598.5 864.78C1592.64 861.993 1586.7 859.573 1580.68 857.52C1574.82 855.467 1569.02 854.44 1563.3 854.44ZM1697.22 986H1664V856.64H1621.32V828.92H1739.9V856.64H1697.22V986ZM1812.96 828.92C1826.9 828.92 1838.56 830.24 1847.94 832.88C1857.48 835.373 1864.59 839.553 1869.28 845.42C1874.12 851.14 1876.54 858.913 1876.54 868.74C1876.54 874.607 1875.59 879.96 1873.68 884.8C1871.78 889.64 1868.99 893.6 1865.32 896.68C1861.8 899.76 1857.48 901.74 1852.34 902.62V903.72C1857.62 904.747 1862.39 906.58 1866.64 909.22C1870.9 911.86 1874.27 915.673 1876.76 920.66C1879.26 925.647 1880.5 932.247 1880.5 940.46C1880.5 949.993 1878.16 958.207 1873.46 965.1C1868.92 971.847 1862.32 977.053 1853.66 980.72C1845.01 984.24 1834.74 986 1822.86 986H1764.12V828.92H1812.96ZM1816.7 891.18C1826.38 891.18 1833.06 889.64 1836.72 886.56C1840.54 883.48 1842.44 879.007 1842.44 873.14C1842.44 867.127 1840.24 862.8 1835.84 860.16C1831.44 857.52 1824.48 856.2 1814.94 856.2H1797.34V891.18H1816.7ZM1797.34 917.58V958.5H1819.12C1829.1 958.5 1836.06 956.593 1840.02 952.78C1843.98 948.82 1845.96 943.613 1845.96 937.16C1845.96 933.2 1845.08 929.753 1843.32 926.82C1841.71 923.887 1838.85 921.613 1834.74 920C1830.64 918.387 1825.06 917.58 1818.02 917.58H1797.34ZM2054.5 907.24C2054.5 919.413 2052.96 930.487 2049.88 940.46C2046.94 950.287 2042.4 958.793 2036.24 965.98C2030.22 973.167 2022.45 978.667 2012.92 982.48C2003.53 986.293 1992.46 988.2 1979.7 988.2C1966.94 988.2 1955.79 986.293 1946.26 982.48C1936.87 978.52 1929.1 973.02 1922.94 965.98C1916.92 958.793 1912.38 950.213 1909.3 940.24C1906.36 930.267 1904.9 919.193 1904.9 907.02C1904.9 890.74 1907.54 876.587 1912.82 864.56C1918.24 852.533 1926.46 843.22 1937.46 836.62C1948.6 829.873 1962.76 826.5 1979.92 826.5C1996.93 826.5 2010.94 829.873 2021.94 836.62C2032.94 843.22 2041.08 852.607 2046.36 864.78C2051.78 876.807 2054.5 890.96 2054.5 907.24ZM1939.88 907.24C1939.88 918.24 1941.27 927.7 1944.06 935.62C1946.84 943.54 1951.17 949.627 1957.04 953.88C1962.9 958.133 1970.46 960.26 1979.7 960.26C1989.23 960.26 1996.86 958.133 2002.58 953.88C2008.44 949.627 2012.7 943.54 2015.34 935.62C2018.12 927.7 2019.52 918.24 2019.52 907.24C2019.52 890.667 2016.44 877.687 2010.28 868.3C2004.12 858.913 1994 854.22 1979.92 854.22C1970.53 854.22 1962.9 856.347 1957.04 860.6C1951.17 864.853 1946.84 870.94 1944.06 878.86C1941.27 886.78 1939.88 896.24 1939.88 907.24Z" fill="#616161" fill-opacity="0.14"/>
</svg>
