<svg width="1856" height="2793" viewBox="0 0 1856 2793" fill="none" xmlns="http://www.w3.org/2000/svg">
<path d="M24.44 1019.54C24.44 1025.85 25.6866 1031.49 28.18 1036.48C30.6733 1041.32 34.2667 1045.43 38.96 1048.8C43.5066 1052.17 49.08 1054.74 55.68 1056.5C62.28 1058.11 69.6866 1058.92 77.9 1058.92C89.0466 1058.92 98.58 1057.6 106.5 1054.96C114.273 1052.17 120.213 1047.85 124.32 1041.98C128.427 1036.11 130.48 1028.63 130.48 1019.54C130.48 1013.09 129.747 1006.71 128.28 1000.4C126.813 993.946 124.76 986.98 122.12 979.5H150.06C152.847 986.393 154.9 993.213 156.22 999.96C157.54 1006.71 158.2 1014.26 158.2 1022.62C158.2 1038.75 154.9 1052.1 148.3 1062.66C141.553 1073.07 132.167 1080.77 120.14 1085.76C107.967 1090.75 93.8133 1093.24 77.68 1093.24C65.8 1093.24 54.9466 1091.63 45.12 1088.4C35.1467 1085.17 26.5667 1080.48 19.38 1074.32C12.1933 1068.01 6.61999 1060.31 2.65999 1051.22C-1.30001 1041.98 -3.28001 1031.42 -3.28001 1019.54C-3.28001 1011.77 -2.25334 1003.99 -0.200008 996.22C1.70666 988.3 4.34666 980.746 7.71999 973.56L34.78 984.34C31.9933 990.206 29.5733 996.146 27.52 1002.16C25.4666 1008.03 24.44 1013.82 24.44 1019.54ZM77.24 807.858C89.4133 807.858 100.487 809.398 110.46 812.478C120.287 815.412 128.793 819.958 135.98 826.118C143.167 832.132 148.667 839.905 152.48 849.438C156.293 858.825 158.2 869.898 158.2 882.658C158.2 895.418 156.293 906.565 152.48 916.098C148.52 925.485 143.02 933.258 135.98 939.418C128.793 945.432 120.213 949.978 110.24 953.058C100.267 955.992 89.1933 957.458 77.02 957.458C60.74 957.458 46.5866 954.818 34.56 949.538C22.5333 944.112 13.22 935.898 6.61999 924.898C-0.126672 913.752 -3.5 899.598 -3.5 882.438C-3.5 865.425 -0.126672 851.418 6.61999 840.418C13.22 829.418 22.6067 821.278 34.78 815.998C46.8067 810.572 60.96 807.858 77.24 807.858ZM77.24 922.478C88.24 922.478 97.7 921.085 105.62 918.298C113.54 915.512 119.627 911.185 123.88 905.318C128.133 899.452 130.26 891.898 130.26 882.658C130.26 873.125 128.133 865.498 123.88 859.778C119.627 853.912 113.54 849.658 105.62 847.018C97.7 844.232 88.24 842.838 77.24 842.838C60.6666 842.838 47.6866 845.918 38.3 852.078C28.9133 858.238 24.22 868.358 24.22 882.438C24.22 891.825 26.3466 899.452 30.6 905.318C34.8533 911.185 40.94 915.512 48.86 918.298C56.78 921.085 66.24 922.478 77.24 922.478ZM156 775.321H-1.08001L-1.08001 676.101H26.42L26.42 742.101H59.2V728.901C59.2 714.088 61.2533 701.988 65.36 692.601C69.4666 683.068 75.1133 676.028 82.3 671.481C89.4866 666.934 97.7 664.661 106.94 664.661C117.207 664.661 126.007 666.934 133.34 671.481C140.673 676.028 146.32 683.068 150.28 692.601C154.093 702.134 156 714.454 156 729.561V775.321ZM128.72 730.881C128.72 720.761 127.107 712.841 123.88 707.121C120.653 701.254 115.007 698.321 106.94 698.321C101.367 698.321 97.1133 699.788 94.18 702.721C91.2466 705.508 89.2666 709.541 88.24 714.821C87.0666 719.954 86.48 726.188 86.48 733.521V742.101H128.72V730.881ZM156 635.028H-1.08001L-1.08001 601.808H59.2L59.2 591.028C59.2 576.508 61.2533 564.555 65.36 555.168C69.4666 545.781 75.1133 538.888 82.3 534.488C89.4866 529.941 97.7 527.668 106.94 527.668C117.207 527.668 126.007 529.941 133.34 534.488C140.673 539.035 146.32 546.075 150.28 555.608C154.093 564.995 156 577.168 156 592.128V635.028ZM128.72 593.008C128.72 583.181 127.107 575.481 123.88 569.908C120.653 564.188 115.007 561.328 106.94 561.328C101.367 561.328 97.1133 562.648 94.18 565.288C91.2466 567.781 89.2666 571.521 88.24 576.508C87.0666 581.495 86.48 587.508 86.48 594.548V601.808H128.72V593.008ZM156 508.528H-1.08001L-1.08001 475.308H156V508.528ZM156 375.153V408.373H26.64V451.053H-1.08001L-1.08001 332.473H26.64L26.64 375.153H156ZM-1.08001 308.251L-1.08001 278.331H74.82C78.4866 278.331 82.5933 278.404 87.14 278.551C91.6866 278.697 96.16 278.844 100.56 278.991C104.813 279.137 108.553 279.284 111.78 279.431C114.86 279.577 116.987 279.724 118.16 279.871V279.211L-1.08001 206.611L-1.08001 166.791H156V196.491H80.54C76.58 196.491 72.2533 196.417 67.56 196.271C62.72 196.124 58.1 195.977 53.7 195.831C49.3 195.537 45.4866 195.317 42.26 195.171C38.8867 194.877 36.6866 194.657 35.66 194.511V195.391L156 268.211V308.251H-1.08001ZM95.72 74.3374L156 111.077V148.037L86.92 103.377C85.16 107.631 82.5933 111.884 79.22 116.137C75.7 120.391 71.08 123.911 65.36 126.697C59.4933 129.484 52.3066 130.877 43.8 130.877C29.28 130.877 18.2067 125.671 10.58 115.257C2.80666 104.844 -1.08001 90.2508 -1.08001 71.4774L-1.08001 20.4374H156V53.6574H95.72V74.3374ZM26.2 70.1574C26.2 75.8774 26.86 80.7908 28.18 84.8974C29.5 88.8574 31.6266 91.9374 34.56 94.1374C37.4933 96.1908 41.38 97.2174 46.22 97.2174C53.1133 97.2174 58.6133 94.9441 62.72 90.3974C66.68 85.7041 68.66 78.6641 68.66 69.2774V53.6574H26.2V70.1574Z" fill="white" fill-opacity="0.12"/>
<path d="M137.24 612.84C137.24 616.28 137.92 619.36 139.28 622.08C140.64 624.72 142.6 626.96 145.16 628.8C147.64 630.64 150.68 632.04 154.28 633C157.88 633.88 161.92 634.32 166.4 634.32C172.48 634.32 177.68 633.6 182 632.16C186.24 630.64 189.48 628.28 191.72 625.08C193.96 621.88 195.08 617.8 195.08 612.84C195.08 609.32 194.68 605.84 193.88 602.4C193.08 598.88 191.96 595.08 190.52 591H205.76C207.28 594.76 208.4 598.48 209.12 602.16C209.84 605.84 210.2 609.96 210.2 614.52C210.2 623.32 208.4 630.6 204.8 636.36C201.12 642.04 196 646.24 189.44 648.96C182.8 651.68 175.08 653.04 166.28 653.04C159.8 653.04 153.88 652.16 148.52 650.4C143.08 648.64 138.4 646.08 134.48 642.72C130.56 639.28 127.52 635.08 125.36 630.12C123.2 625.08 122.12 619.32 122.12 612.84C122.12 608.6 122.68 604.36 123.8 600.12C124.84 595.8 126.28 591.68 128.12 587.76L142.88 593.64C141.36 596.84 140.04 600.08 138.92 603.36C137.8 606.56 137.24 609.72 137.24 612.84ZM166.04 497.377C172.68 497.377 178.72 498.217 184.16 499.897C189.52 501.497 194.16 503.977 198.08 507.337C202 510.617 205 514.857 207.08 520.057C209.16 525.177 210.2 531.217 210.2 538.177C210.2 545.137 209.16 551.217 207.08 556.417C204.92 561.537 201.92 565.777 198.08 569.137C194.16 572.417 189.48 574.897 184.04 576.577C178.6 578.177 172.56 578.977 165.92 578.977C157.04 578.977 149.32 577.537 142.76 574.657C136.2 571.697 131.12 567.217 127.52 561.217C123.84 555.137 122 547.417 122 538.057C122 528.777 123.84 521.137 127.52 515.137C131.12 509.137 136.24 504.697 142.88 501.817C149.44 498.857 157.16 497.377 166.04 497.377ZM166.04 559.897C172.04 559.897 177.2 559.137 181.52 557.617C185.84 556.097 189.16 553.737 191.48 550.537C193.8 547.337 194.96 543.217 194.96 538.177C194.96 532.977 193.8 528.817 191.48 525.697C189.16 522.497 185.84 520.177 181.52 518.737C177.2 517.217 172.04 516.457 166.04 516.457C157 516.457 149.92 518.137 144.8 521.497C139.68 524.857 137.12 530.377 137.12 538.057C137.12 543.177 138.28 547.337 140.6 550.537C142.92 553.737 146.24 556.097 150.56 557.617C154.88 559.137 160.04 559.897 166.04 559.897ZM209 479.63L123.32 479.63L123.32 425.51H138.32L138.32 461.51H156.2V454.31C156.2 446.23 157.32 439.63 159.56 434.51C161.8 429.31 164.88 425.47 168.8 422.99C172.72 420.51 177.2 419.27 182.24 419.27C187.84 419.27 192.64 420.51 196.64 422.99C200.64 425.47 203.72 429.31 205.88 434.51C207.96 439.71 209 446.43 209 454.67L209 479.63ZM194.12 455.39C194.12 449.87 193.24 445.55 191.48 442.43C189.72 439.23 186.64 437.63 182.24 437.63C179.2 437.63 176.88 438.43 175.28 440.03C173.68 441.55 172.6 443.75 172.04 446.63C171.4 449.43 171.08 452.83 171.08 456.83V461.51H194.12L194.12 455.39ZM209 403.106H123.32L123.32 384.986H156.2V379.106C156.2 371.186 157.32 364.666 159.56 359.546C161.8 354.426 164.88 350.666 168.8 348.266C172.72 345.786 177.2 344.546 182.24 344.546C187.84 344.546 192.64 345.786 196.64 348.266C200.64 350.746 203.72 354.586 205.88 359.786C207.96 364.906 209 371.546 209 379.706V403.106ZM194.12 380.186C194.12 374.826 193.24 370.626 191.48 367.586C189.72 364.466 186.64 362.906 182.24 362.906C179.2 362.906 176.88 363.626 175.28 365.066C173.68 366.426 172.6 368.466 172.04 371.186C171.4 373.906 171.08 377.186 171.08 381.026V384.986H194.12V380.186ZM209 334.106H123.32V315.986H209V334.106ZM209 261.356V279.476H138.44V302.756H123.32L123.32 238.076H138.44V261.356H209ZM123.32 224.864V208.544H164.72C166.72 208.544 168.96 208.584 171.44 208.664C173.92 208.744 176.36 208.824 178.76 208.904C181.08 208.984 183.12 209.064 184.88 209.144C186.56 209.224 187.72 209.304 188.36 209.384V209.024L123.32 169.424V147.704H209V163.904H167.84C165.68 163.904 163.32 163.864 160.76 163.784C158.12 163.704 155.6 163.624 153.2 163.544C150.8 163.384 148.72 163.264 146.96 163.184C145.12 163.024 143.92 162.904 143.36 162.824V163.304L209 203.024L209 224.864H123.32ZM176.12 97.275L209 117.315L209 137.475L171.32 113.115C170.36 115.435 168.96 117.755 167.12 120.075C165.2 122.395 162.68 124.315 159.56 125.835C156.36 127.355 152.44 128.115 147.8 128.115C139.88 128.115 133.84 125.275 129.68 119.595C125.44 113.915 123.32 105.955 123.32 95.715L123.32 67.875H209V85.995H176.12V97.275ZM138.2 94.995C138.2 98.115 138.56 100.795 139.28 103.035C140 105.195 141.16 106.875 142.76 108.075C144.36 109.195 146.48 109.755 149.12 109.755C152.88 109.755 155.88 108.515 158.12 106.035C160.28 103.475 161.36 99.635 161.36 94.515V85.995H138.2V94.995Z" fill="white"/>
<path d="M1282.18 1760.76L1559.5 1600.37L1836.82 1760.76V2081.53L1559.5 2241.92L1282.18 2081.53V1760.76Z" stroke="white"/>
<path d="M68.1772 2310.76L345.5 2150.37L622.824 2310.76V2631.53L345.5 2791.92L68.1772 2631.53V2310.76Z" stroke="white"/>
<path d="M73.1772 279.757L350.5 119.37L627.824 279.757V600.529L350.5 760.917L73.1772 600.529V279.757Z" stroke="white"/>
<path d="M1622.78 199.013L1739 131.767L1855.22 199.013V333.503L1739 400.749L1622.78 333.503V199.013Z" stroke="white"/>
<path d="M1746.42 318.614L1787.31 294.958L1828.21 318.614V365.924L1787.31 389.579L1746.42 365.924V318.614Z" stroke="white"/>
</svg>
