<svg width="295" height="60" viewBox="0 0 295 60" fill="none" xmlns="http://www.w3.org/2000/svg">
<circle cx="30" cy="30" r="30" fill="white"/>
<path fill-rule="evenodd" clip-rule="evenodd" d="M29.3596 9.65515H9.65515V29.3596H29.3596V9.65515ZM20.4926 9.65516H18.6207V22.5616H20.4926V9.65516Z" fill="#1F6288"/>
<path fill-rule="evenodd" clip-rule="evenodd" d="M29.3596 30.6404H9.65515V50.3448H18.5222V38.0295H20.3941V50.3448H29.3596V30.6404Z" fill="#1F6288"/>
<path fill-rule="evenodd" clip-rule="evenodd" d="M30.7389 30.6404H50.4433L50.4433 37.5369H46.4039V50.3448H34.8768V37.5369H30.7389L30.7389 50.3448V30.6404Z" fill="#1F6288"/>
<path fill-rule="evenodd" clip-rule="evenodd" d="M50.4433 9.65515H30.7389V29.3596L39.7044 29.3596V9.65516H41.5764V29.3596L50.4433 29.3596V9.65515Z" fill="#1F6288"/>
<path d="M40.5911 21.9705L33.68 14.803L47.5023 14.803L40.5911 21.9705Z" fill="#C00E0E"/>
<path d="M31.3266 28.6171L23.3478 32.6038L26.6729 21.008L31.3266 28.6171Z" fill="#C00E0E"/>
<path d="M84.3309 19.878V25.782H81.7029V22.038H72.2529V9.18599H74.9709V19.77H79.7049V9.18599H82.4229V19.878H84.3309ZM93.7134 22.038H86.3154V9.18599H93.7134V11.418H89.0334V14.244H93.3894V16.476H89.0334V19.788H93.7134V22.038ZM106.918 22.038H104.2V16.494H99.1057V22.038H96.3877V9.18599H99.1057V14.226H104.2V9.18599H106.918V22.038ZM115.101 22.038H112.383V11.454H108.891V9.18599H118.593V11.454H115.101V22.038ZM124.679 9.18599C126.335 9.18599 127.541 9.54599 128.297 10.266C129.065 10.974 129.449 11.952 129.449 13.2C129.449 13.764 129.365 14.304 129.197 14.82C129.029 15.324 128.747 15.78 128.351 16.188C127.967 16.584 127.457 16.896 126.821 17.124C126.185 17.352 125.399 17.466 124.463 17.466H123.293V22.038H120.575V9.18599H124.679ZM124.535 11.418H123.293V15.234H124.193C124.709 15.234 125.153 15.168 125.525 15.036C125.897 14.904 126.185 14.694 126.389 14.406C126.593 14.118 126.695 13.746 126.695 13.29C126.695 12.654 126.521 12.186 126.173 11.886C125.825 11.574 125.279 11.418 124.535 11.418ZM141.814 22.038L138.718 11.958H138.646C138.658 12.198 138.676 12.558 138.7 13.038C138.724 13.518 138.748 14.034 138.772 14.586C138.796 15.126 138.808 15.618 138.808 16.062V22.038H136.378V9.18599H140.086L143.128 19.014H143.182L146.404 9.18599H150.112V22.038H147.574V15.954C147.574 15.546 147.58 15.078 147.592 14.55C147.616 14.022 147.634 13.524 147.646 13.056C147.67 12.576 147.688 12.216 147.7 11.976H147.628L144.316 22.038H141.814ZM165.022 15.594C165.022 16.59 164.896 17.496 164.644 18.312C164.404 19.116 164.032 19.812 163.528 20.4C163.036 20.988 162.4 21.438 161.62 21.75C160.852 22.062 159.946 22.218 158.902 22.218C157.858 22.218 156.946 22.062 156.166 21.75C155.398 21.426 154.762 20.976 154.258 20.4C153.766 19.812 153.394 19.11 153.142 18.294C152.902 17.478 152.782 16.572 152.782 15.576C152.782 14.244 152.998 13.086 153.43 12.102C153.874 11.118 154.546 10.356 155.446 9.81599C156.358 9.26399 157.516 8.98799 158.92 8.98799C160.312 8.98799 161.458 9.26399 162.358 9.81599C163.258 10.356 163.924 11.124 164.356 12.12C164.8 13.104 165.022 14.262 165.022 15.594ZM155.644 15.594C155.644 16.494 155.758 17.268 155.986 17.916C156.214 18.564 156.568 19.062 157.048 19.41C157.528 19.758 158.146 19.932 158.902 19.932C159.682 19.932 160.306 19.758 160.774 19.41C161.254 19.062 161.602 18.564 161.818 17.916C162.046 17.268 162.16 16.494 162.16 15.594C162.16 14.238 161.908 13.176 161.404 12.408C160.9 11.64 160.072 11.256 158.92 11.256C158.152 11.256 157.528 11.43 157.048 11.778C156.568 12.126 156.214 12.624 155.986 13.272C155.758 13.92 155.644 14.694 155.644 15.594ZM177.503 22.038H174.785V11.454H171.635C171.563 12.006 171.485 12.606 171.401 13.254C171.329 13.902 171.245 14.562 171.149 15.234C171.065 15.894 170.975 16.524 170.879 17.124C170.783 17.712 170.687 18.234 170.591 18.69C170.435 19.434 170.225 20.07 169.961 20.598C169.709 21.126 169.355 21.528 168.899 21.804C168.455 22.08 167.873 22.218 167.153 22.218C166.913 22.218 166.685 22.2 166.469 22.164C166.253 22.128 166.049 22.08 165.857 22.02V19.788C166.013 19.836 166.163 19.878 166.307 19.914C166.463 19.95 166.631 19.968 166.811 19.968C167.051 19.968 167.249 19.89 167.405 19.734C167.561 19.578 167.699 19.314 167.819 18.942C167.939 18.558 168.059 18.03 168.179 17.358C168.239 17.07 168.311 16.662 168.395 16.134C168.479 15.594 168.575 14.964 168.683 14.244C168.803 13.512 168.923 12.72 169.043 11.868C169.163 11.004 169.277 10.11 169.385 9.18599H177.503V22.038ZM192.409 15.594C192.409 16.59 192.283 17.496 192.031 18.312C191.791 19.116 191.419 19.812 190.915 20.4C190.423 20.988 189.787 21.438 189.007 21.75C188.239 22.062 187.333 22.218 186.289 22.218C185.245 22.218 184.333 22.062 183.553 21.75C182.785 21.426 182.149 20.976 181.645 20.4C181.153 19.812 180.781 19.11 180.529 18.294C180.289 17.478 180.169 16.572 180.169 15.576C180.169 14.244 180.385 13.086 180.817 12.102C181.261 11.118 181.933 10.356 182.833 9.81599C183.745 9.26399 184.903 8.98799 186.307 8.98799C187.699 8.98799 188.845 9.26399 189.745 9.81599C190.645 10.356 191.311 11.124 191.743 12.12C192.187 13.104 192.409 14.262 192.409 15.594ZM183.031 15.594C183.031 16.494 183.145 17.268 183.373 17.916C183.601 18.564 183.955 19.062 184.435 19.41C184.915 19.758 185.533 19.932 186.289 19.932C187.069 19.932 187.693 19.758 188.161 19.41C188.641 19.062 188.989 18.564 189.205 17.916C189.433 17.268 189.547 16.494 189.547 15.594C189.547 14.238 189.295 13.176 188.791 12.408C188.287 11.64 187.459 11.256 186.307 11.256C185.539 11.256 184.915 11.43 184.435 11.778C183.955 12.126 183.601 12.624 183.373 13.272C183.145 13.92 183.031 14.694 183.031 15.594ZM204.782 9.18599V19.77H206.492V25.782H203.864V22.038H195.818V25.782H193.19V19.77H194.18C194.516 19.098 194.84 18.39 195.152 17.646C195.464 16.902 195.752 16.104 196.016 15.252C196.292 14.4 196.538 13.476 196.754 12.48C196.97 11.472 197.15 10.374 197.294 9.18599H204.782ZM199.454 11.454C199.37 12.078 199.25 12.744 199.094 13.452C198.938 14.148 198.752 14.862 198.536 15.594C198.332 16.326 198.104 17.046 197.852 17.754C197.6 18.462 197.33 19.134 197.042 19.77H202.064V11.454H199.454ZM215.864 22.038H208.466V9.18599H215.864V11.418H211.184V14.244H215.54V16.476H211.184V19.788H215.864V22.038ZM221.49 15.36L217.17 9.18599H219.978L224.136 15.414V9.18599H226.674V15.414L230.832 9.18599H233.64L229.32 15.36L233.892 22.038H230.976L226.674 15.522V22.038H224.136V15.522L219.834 22.038H216.918L221.49 15.36ZM246.049 22.038H243.331V16.494H238.237V22.038H235.519V9.18599H238.237V14.226H243.331V9.18599H246.049V22.038ZM260.946 15.594C260.946 16.59 260.82 17.496 260.568 18.312C260.328 19.116 259.956 19.812 259.452 20.4C258.96 20.988 258.324 21.438 257.544 21.75C256.776 22.062 255.87 22.218 254.826 22.218C253.782 22.218 252.87 22.062 252.09 21.75C251.322 21.426 250.686 20.976 250.182 20.4C249.69 19.812 249.318 19.11 249.066 18.294C248.826 17.478 248.706 16.572 248.706 15.576C248.706 14.244 248.922 13.086 249.354 12.102C249.798 11.118 250.47 10.356 251.37 9.81599C252.282 9.26399 253.44 8.98799 254.844 8.98799C256.236 8.98799 257.382 9.26399 258.282 9.81599C259.182 10.356 259.848 11.124 260.28 12.12C260.724 13.104 260.946 14.262 260.946 15.594ZM251.568 15.594C251.568 16.494 251.682 17.268 251.91 17.916C252.138 18.564 252.492 19.062 252.972 19.41C253.452 19.758 254.07 19.932 254.826 19.932C255.606 19.932 256.23 19.758 256.698 19.41C257.178 19.062 257.526 18.564 257.742 17.916C257.97 17.268 258.084 16.494 258.084 15.594C258.084 14.238 257.832 13.176 257.328 12.408C256.824 11.64 255.996 11.256 254.844 11.256C254.076 11.256 253.452 11.43 252.972 11.778C252.492 12.126 252.138 12.624 251.91 13.272C251.682 13.92 251.568 14.694 251.568 15.594ZM273.958 4.95599C273.898 5.57999 273.724 6.13199 273.436 6.61199C273.148 7.07999 272.698 7.44599 272.086 7.70999C271.474 7.97399 270.652 8.10599 269.62 8.10599C268.564 8.10599 267.736 7.97999 267.136 7.72799C266.548 7.46399 266.128 7.09799 265.876 6.62999C265.624 6.16199 265.474 5.60399 265.426 4.95599H267.82C267.88 5.61599 268.048 6.05399 268.324 6.26999C268.6 6.48599 269.05 6.59399 269.674 6.59399C270.19 6.59399 270.61 6.47999 270.934 6.25199C271.27 6.01199 271.468 5.57999 271.528 4.95599H273.958ZM263.608 9.18599H266.056V15.396C266.056 15.696 266.05 16.032 266.038 16.404C266.026 16.776 266.014 17.142 266.002 17.502C265.99 17.85 265.978 18.156 265.966 18.42C265.954 18.672 265.942 18.846 265.93 18.942H265.984L271.924 9.18599H275.182V22.038H272.752V15.864C272.752 15.54 272.758 15.186 272.77 14.802C272.782 14.406 272.794 14.028 272.806 13.668C272.83 13.308 272.848 12.996 272.86 12.732C272.884 12.456 272.902 12.276 272.914 12.192H272.842L266.884 22.038H263.608V9.18599ZM72.2529 48.038V35.186H82.4229V48.038H79.7049V37.454H74.9709V48.038H72.2529ZM97.329 41.594C97.329 42.59 97.203 43.496 96.951 44.312C96.711 45.116 96.339 45.812 95.835 46.4C95.343 46.988 94.707 47.438 93.927 47.75C93.159 48.062 92.253 48.218 91.209 48.218C90.165 48.218 89.253 48.062 88.473 47.75C87.705 47.426 87.069 46.976 86.565 46.4C86.073 45.812 85.701 45.11 85.449 44.294C85.209 43.478 85.089 42.572 85.089 41.576C85.089 40.244 85.305 39.086 85.737 38.102C86.181 37.118 86.853 36.356 87.753 35.816C88.665 35.264 89.823 34.988 91.227 34.988C92.619 34.988 93.765 35.264 94.665 35.816C95.565 36.356 96.231 37.124 96.663 38.12C97.107 39.104 97.329 40.262 97.329 41.594ZM87.951 41.594C87.951 42.494 88.065 43.268 88.293 43.916C88.521 44.564 88.875 45.062 89.355 45.41C89.835 45.758 90.453 45.932 91.209 45.932C91.989 45.932 92.613 45.758 93.081 45.41C93.561 45.062 93.909 44.564 94.125 43.916C94.353 43.268 94.467 42.494 94.467 41.594C94.467 40.238 94.215 39.176 93.711 38.408C93.207 37.64 92.379 37.256 91.227 37.256C90.459 37.256 89.835 37.43 89.355 37.778C88.875 38.126 88.521 38.624 88.293 39.272C88.065 39.92 87.951 40.694 87.951 41.594ZM109.81 48.038H107.092V37.454H103.942C103.87 38.006 103.792 38.606 103.708 39.254C103.636 39.902 103.552 40.562 103.456 41.234C103.372 41.894 103.282 42.524 103.186 43.124C103.09 43.712 102.994 44.234 102.898 44.69C102.742 45.434 102.532 46.07 102.268 46.598C102.016 47.126 101.662 47.528 101.206 47.804C100.762 48.08 100.18 48.218 99.4596 48.218C99.2196 48.218 98.9916 48.2 98.7756 48.164C98.5596 48.128 98.3556 48.08 98.1636 48.02V45.788C98.3196 45.836 98.4696 45.878 98.6136 45.914C98.7696 45.95 98.9376 45.968 99.1176 45.968C99.3576 45.968 99.5556 45.89 99.7116 45.734C99.8676 45.578 100.006 45.314 100.126 44.942C100.246 44.558 100.366 44.03 100.486 43.358C100.546 43.07 100.618 42.662 100.702 42.134C100.786 41.594 100.882 40.964 100.99 40.244C101.11 39.512 101.23 38.72 101.35 37.868C101.47 37.004 101.584 36.11 101.692 35.186H109.81V48.038ZM113.052 35.186H115.5V41.396C115.5 41.696 115.494 42.032 115.482 42.404C115.47 42.776 115.458 43.142 115.446 43.502C115.434 43.85 115.422 44.156 115.41 44.42C115.398 44.672 115.386 44.846 115.374 44.942H115.428L121.368 35.186H124.626V48.038H122.196V41.864C122.196 41.54 122.202 41.186 122.214 40.802C122.226 40.406 122.238 40.028 122.25 39.668C122.274 39.308 122.292 38.996 122.304 38.732C122.328 38.456 122.346 38.276 122.358 38.192H122.286L116.328 48.038H113.052V35.186ZM132.82 48.038H130.102V37.454H126.61V35.186H136.312V37.454H132.82V48.038ZM138.294 35.186H140.742V41.396C140.742 41.696 140.736 42.032 140.724 42.404C140.712 42.776 140.7 43.142 140.688 43.502C140.676 43.85 140.664 44.156 140.652 44.42C140.64 44.672 140.628 44.846 140.616 44.942H140.67L146.61 35.186H149.868V48.038H147.438V41.864C147.438 41.54 147.444 41.186 147.456 40.802C147.468 40.406 147.48 40.028 147.492 39.668C147.516 39.308 147.534 38.996 147.546 38.732C147.57 38.456 147.588 38.276 147.6 38.192H147.528L141.57 48.038H138.294V35.186ZM163.588 48.038H160.492L155.83 41.522V48.038H153.112V35.186H155.83V41.414L160.438 35.186H163.336L158.656 41.36L163.588 48.038ZM165.206 35.186H167.654V41.396C167.654 41.696 167.648 42.032 167.636 42.404C167.624 42.776 167.612 43.142 167.6 43.502C167.588 43.85 167.576 44.156 167.564 44.42C167.552 44.672 167.54 44.846 167.528 44.942H167.582L173.522 35.186H176.78V48.038H174.35V41.864C174.35 41.54 174.356 41.186 174.368 40.802C174.38 40.406 174.392 40.028 174.404 39.668C174.428 39.308 174.446 38.996 174.458 38.732C174.482 38.456 174.5 38.276 174.512 38.192H174.44L168.482 48.038H165.206V35.186ZM184.524 35.186H186.972V41.396C186.972 41.696 186.966 42.032 186.954 42.404C186.942 42.776 186.93 43.142 186.918 43.502C186.906 43.85 186.894 44.156 186.882 44.42C186.87 44.672 186.858 44.846 186.846 44.942H186.9L192.84 35.186H196.098V48.038H193.668V41.864C193.668 41.54 193.674 41.186 193.686 40.802C193.698 40.406 193.71 40.028 193.722 39.668C193.746 39.308 193.764 38.996 193.776 38.732C193.8 38.456 193.818 38.276 193.83 38.192H193.758L187.8 48.038H184.524V35.186ZM208.793 48.038H206.075V37.454H202.583V35.186H212.285V37.454H208.793V48.038ZM220.603 44.276C220.243 45.092 219.859 45.8 219.451 46.4C219.055 46.988 218.545 47.438 217.921 47.75C217.297 48.062 216.481 48.218 215.473 48.218C215.161 48.218 214.819 48.194 214.447 48.146C214.075 48.098 213.733 48.032 213.421 47.948V45.608C213.709 45.728 214.027 45.812 214.375 45.86C214.723 45.908 215.047 45.932 215.347 45.932C215.743 45.932 216.061 45.866 216.301 45.734C216.553 45.602 216.751 45.422 216.895 45.194C217.051 44.954 217.177 44.696 217.273 44.42L212.827 35.186H215.707L218.101 40.748C218.161 40.868 218.233 41.024 218.317 41.216C218.401 41.408 218.485 41.606 218.569 41.81C218.653 42.014 218.719 42.194 218.767 42.35H218.857C218.905 42.206 218.965 42.032 219.037 41.828C219.121 41.612 219.205 41.396 219.289 41.18C219.385 40.952 219.469 40.754 219.541 40.586L221.773 35.186H224.581L220.603 44.276ZM230.306 35.186C231.962 35.186 233.168 35.546 233.924 36.266C234.692 36.974 235.076 37.952 235.076 39.2C235.076 39.764 234.992 40.304 234.824 40.82C234.656 41.324 234.374 41.78 233.978 42.188C233.594 42.584 233.084 42.896 232.448 43.124C231.812 43.352 231.026 43.466 230.09 43.466H228.92V48.038H226.202V35.186H230.306ZM230.162 37.418H228.92V41.234H229.82C230.336 41.234 230.78 41.168 231.152 41.036C231.524 40.904 231.812 40.694 232.016 40.406C232.22 40.118 232.322 39.746 232.322 39.29C232.322 38.654 232.148 38.186 231.8 37.886C231.452 37.574 230.906 37.418 230.162 37.418ZM237.505 35.186H239.953V41.396C239.953 41.696 239.947 42.032 239.935 42.404C239.923 42.776 239.911 43.142 239.899 43.502C239.887 43.85 239.875 44.156 239.863 44.42C239.851 44.672 239.839 44.846 239.827 44.942H239.881L245.821 35.186H249.079V48.038H246.649V41.864C246.649 41.54 246.655 41.186 246.667 40.802C246.679 40.406 246.691 40.028 246.703 39.668C246.727 39.308 246.745 38.996 246.757 38.732C246.781 38.456 246.799 38.276 246.811 38.192H246.739L240.781 48.038H237.505V35.186ZM261.197 38.192C261.197 39.056 260.891 39.752 260.279 40.28C259.667 40.808 258.887 41.138 257.939 41.27V41.324C259.115 41.444 260.015 41.774 260.639 42.314C261.275 42.842 261.593 43.532 261.593 44.384C261.593 45.128 261.389 45.794 260.981 46.382C260.573 46.958 259.967 47.408 259.163 47.732C258.359 48.056 257.363 48.218 256.175 48.218C255.203 48.218 254.339 48.158 253.583 48.038C252.839 47.918 252.191 47.744 251.639 47.516V45.23C252.011 45.41 252.431 45.566 252.899 45.698C253.367 45.818 253.841 45.914 254.321 45.986C254.801 46.046 255.245 46.076 255.653 46.076C256.793 46.076 257.615 45.914 258.119 45.59C258.635 45.254 258.893 44.786 258.893 44.186C258.893 43.574 258.521 43.13 257.777 42.854C257.033 42.566 256.031 42.422 254.771 42.422H253.565V40.298H254.645C255.665 40.298 256.457 40.232 257.021 40.1C257.585 39.968 257.981 39.776 258.209 39.524C258.437 39.272 258.551 38.972 258.551 38.624C258.551 38.18 258.353 37.832 257.957 37.58C257.573 37.316 256.991 37.184 256.211 37.184C255.551 37.184 254.927 37.28 254.339 37.472C253.763 37.664 253.223 37.916 252.719 38.228L251.531 36.41C251.975 36.122 252.443 35.876 252.935 35.672C253.439 35.456 253.991 35.294 254.591 35.186C255.191 35.066 255.857 35.006 256.589 35.006C257.561 35.006 258.389 35.144 259.073 35.42C259.757 35.696 260.279 36.074 260.639 36.554C261.011 37.022 261.197 37.568 261.197 38.192ZM269.431 48.038L266.335 37.958H266.263C266.275 38.198 266.293 38.558 266.317 39.038C266.341 39.518 266.365 40.034 266.389 40.586C266.413 41.126 266.425 41.618 266.425 42.062V48.038H263.995V35.186H267.703L270.745 45.014H270.799L274.021 35.186H277.729V48.038H275.191V41.954C275.191 41.546 275.197 41.078 275.209 40.55C275.233 40.022 275.251 39.524 275.263 39.056C275.287 38.576 275.305 38.216 275.317 37.976H275.245L271.933 48.038H269.431ZM288.842 48.038L287.906 44.978H283.226L282.29 48.038H279.356L283.892 35.132H287.222L291.776 48.038H288.842ZM286.322 39.704C286.262 39.5 286.184 39.242 286.088 38.93C285.992 38.618 285.896 38.3 285.8 37.976C285.704 37.652 285.626 37.37 285.566 37.13C285.506 37.37 285.422 37.67 285.314 38.03C285.218 38.378 285.122 38.714 285.026 39.038C284.942 39.35 284.876 39.572 284.828 39.704L283.91 42.692H287.258L286.322 39.704Z" fill="white"/>
</svg>
