<svg width="38" height="30" viewBox="0 0 38 30" fill="none" xmlns="http://www.w3.org/2000/svg">
<path fill-rule="evenodd" clip-rule="evenodd" d="M12.625 3.75C12.625 3.41848 12.7567 3.10054 12.9911 2.86612C13.2255 2.6317 13.5435 2.5 13.875 2.5H33.875C34.2065 2.5 34.5245 2.6317 34.7589 2.86612C34.9933 3.10054 35.125 3.41848 35.125 3.75V26.25C35.125 26.5815 34.9933 26.8995 34.7589 27.1339C34.5245 27.3683 34.2065 27.5 33.875 27.5H13.875C13.5435 27.5 13.2255 27.3683 12.9911 27.1339C12.7567 26.8995 12.625 26.5815 12.625 26.25V21.25C12.625 20.9185 12.4933 20.6005 12.2589 20.3661C12.0245 20.1317 11.7065 20 11.375 20C11.0435 20 10.7255 20.1317 10.4911 20.3661C10.2567 20.6005 10.125 20.9185 10.125 21.25V26.25C10.125 27.2446 10.5201 28.1984 11.2233 28.9017C11.9266 29.6049 12.8804 30 13.875 30H33.875C34.8696 30 35.8234 29.6049 36.5267 28.9017C37.2299 28.1984 37.625 27.2446 37.625 26.25V3.75C37.625 2.75544 37.2299 1.80161 36.5267 1.09835C35.8234 0.395088 34.8696 0 33.875 0H13.875C12.8804 0 11.9266 0.395088 11.2233 1.09835C10.5201 1.80161 10.125 2.75544 10.125 3.75V8.75C10.125 9.08152 10.2567 9.39946 10.4911 9.63388C10.7255 9.8683 11.0435 10 11.375 10C11.7065 10 12.0245 9.8683 12.2589 9.63388C12.4933 9.39946 12.625 9.08152 12.625 8.75V3.75Z" fill="white"/>
<path fill-rule="evenodd" clip-rule="evenodd" d="M27.26 15.885C27.3764 15.7689 27.4688 15.6309 27.5318 15.4791C27.5948 15.3272 27.6272 15.1644 27.6272 15C27.6272 14.8356 27.5948 14.6728 27.5318 14.5209C27.4688 14.369 27.3764 14.2311 27.26 14.115L19.76 6.61499C19.6438 6.49877 19.5058 6.40658 19.354 6.34368C19.2021 6.28079 19.0394 6.24841 18.875 6.24841C18.7106 6.24841 18.5479 6.28079 18.396 6.34368C18.2442 6.40658 18.1062 6.49877 17.99 6.61499C17.8738 6.73121 17.7816 6.86918 17.7187 7.02103C17.6558 7.17288 17.6234 7.33563 17.6234 7.49999C17.6234 7.66435 17.6558 7.8271 17.7187 7.97895C17.7816 8.1308 17.8738 8.26877 17.99 8.38499L23.3575 13.75H1.375C1.04348 13.75 0.725537 13.8817 0.491116 14.1161C0.256696 14.3505 0.125 14.6685 0.125 15C0.125 15.3315 0.256696 15.6495 0.491116 15.8839C0.725537 16.1183 1.04348 16.25 1.375 16.25H23.3575L17.99 21.615C17.8738 21.7312 17.7816 21.8692 17.7187 22.021C17.6558 22.1729 17.6234 22.3356 17.6234 22.5C17.6234 22.6644 17.6558 22.8271 17.7187 22.979C17.7816 23.1308 17.8738 23.2688 17.99 23.385C18.1062 23.5012 18.2442 23.5934 18.396 23.6563C18.5479 23.7192 18.7106 23.7516 18.875 23.7516C19.0394 23.7516 19.2021 23.7192 19.354 23.6563C19.5058 23.5934 19.6438 23.5012 19.76 23.385L27.26 15.885Z" fill="white"/>
</svg>
