<svg width="38" height="30" viewBox="0 0 38 30" fill="none" xmlns="http://www.w3.org/2000/svg">
<path fill-rule="evenodd" clip-rule="evenodd" d="M0.650024 28.3333C0.650024 27.8913 0.825619 27.4674 1.13818 27.1548C1.45074 26.8423 1.87466 26.6667 2.31669 26.6667H35.65C36.0921 26.6667 36.516 26.8423 36.8285 27.1548C37.1411 27.4674 37.3167 27.8913 37.3167 28.3333C37.3167 28.7754 37.1411 29.1993 36.8285 29.5118C36.516 29.8244 36.0921 30 35.65 30H2.31669C1.87466 30 1.45074 29.8244 1.13818 29.5118C0.825619 29.1993 0.650024 28.7754 0.650024 28.3333ZM0.650024 15C0.650024 14.558 0.825619 14.134 1.13818 13.8215C1.45074 13.5089 1.87466 13.3333 2.31669 13.3333H35.65C36.0921 13.3333 36.516 13.5089 36.8285 13.8215C37.1411 14.134 37.3167 14.558 37.3167 15C37.3167 15.442 37.1411 15.866 36.8285 16.1785C36.516 16.4911 36.0921 16.6667 35.65 16.6667H2.31669C1.87466 16.6667 1.45074 16.4911 1.13818 16.1785C0.825619 15.866 0.650024 15.442 0.650024 15ZM0.650024 1.66667C0.650024 1.22464 0.825619 0.800716 1.13818 0.488156C1.45074 0.175595 1.87466 0 2.31669 0H35.65C36.0921 0 36.516 0.175595 36.8285 0.488156C37.1411 0.800716 37.3167 1.22464 37.3167 1.66667C37.3167 2.10869 37.1411 2.53262 36.8285 2.84518C36.516 3.15774 36.0921 3.33333 35.65 3.33333H2.31669C1.87466 3.33333 1.45074 3.15774 1.13818 2.84518C0.825619 2.53262 0.650024 2.10869 0.650024 1.66667Z" fill="white"/>
</svg>
