<svg width="31" height="30" viewBox="0 0 31 30" fill="none" xmlns="http://www.w3.org/2000/svg">
<path d="M22.75 30C24.7391 30 26.6468 29.2098 28.0533 27.8033C29.4598 26.3968 30.25 24.4891 30.25 22.5C30.25 20.5109 29.4598 18.6032 28.0533 17.1967C26.6468 15.7902 24.7391 15 22.75 15C20.7609 15 18.8532 15.7902 17.4467 17.1967C16.0402 18.6032 15.25 20.5109 15.25 22.5C15.25 24.4891 16.0402 26.3968 17.4467 27.8033C18.8532 29.2098 20.7609 30 22.75 30ZM23.8214 19.2857V21.4286H25.9643C26.2485 21.4286 26.521 21.5415 26.7219 21.7424C26.9228 21.9433 27.0357 22.2158 27.0357 22.5C27.0357 22.7842 26.9228 23.0567 26.7219 23.2576C26.521 23.4585 26.2485 23.5714 25.9643 23.5714H23.8214V25.7143C23.8214 25.9984 23.7086 26.271 23.5076 26.4719C23.3067 26.6728 23.0342 26.7857 22.75 26.7857C22.4659 26.7857 22.1933 26.6728 21.9924 26.4719C21.7915 26.271 21.6786 25.9984 21.6786 25.7143V23.5714H19.5357C19.2516 23.5714 18.979 23.4585 18.7781 23.2576C18.5772 23.0567 18.4643 22.7842 18.4643 22.5C18.4643 22.2158 18.5772 21.9433 18.7781 21.7424C18.979 21.5415 19.2516 21.4286 19.5357 21.4286H21.6786V19.2857C21.6786 19.0016 21.7915 18.729 21.9924 18.5281C22.1933 18.3272 22.4659 18.2143 22.75 18.2143C23.0342 18.2143 23.3067 18.3272 23.5076 18.5281C23.7086 18.729 23.8214 19.0016 23.8214 19.2857ZM19.5357 6.42857C19.5357 8.13353 18.8584 9.76867 17.6528 10.9743C16.4473 12.1798 14.8121 12.8571 13.1072 12.8571C11.4022 12.8571 9.76706 12.1798 8.56147 10.9743C7.35588 9.76867 6.67859 8.13353 6.67859 6.42857C6.67859 4.72361 7.35588 3.08848 8.56147 1.88289C9.76706 0.677294 11.4022 0 13.1072 0C14.8121 0 16.4473 0.677294 17.6528 1.88289C18.8584 3.08848 19.5357 4.72361 19.5357 6.42857ZM13.1072 10.7143C14.2438 10.7143 15.3339 10.2628 16.1376 9.45903C16.9413 8.6553 17.3929 7.56521 17.3929 6.42857C17.3929 5.29193 16.9413 4.20184 16.1376 3.39811C15.3339 2.59439 14.2438 2.14286 13.1072 2.14286C11.9705 2.14286 10.8804 2.59439 10.0767 3.39811C9.27298 4.20184 8.82145 5.29193 8.82145 6.42857C8.82145 7.56521 9.27298 8.6553 10.0767 9.45903C10.8804 10.2628 11.9705 10.7143 13.1072 10.7143Z" fill="white"/>
<path d="M13.6557 25.7143C13.4099 25.0184 13.2452 24.2965 13.165 23.5629H2.39286C2.395 23.0357 2.72286 21.45 4.17571 19.9971C5.57286 18.6 8.20214 17.1429 13.1071 17.1429C13.6643 17.1429 14.1936 17.1621 14.6929 17.1964C15.1771 16.4657 15.7557 15.8036 16.4157 15.2293C15.415 15.0814 14.3157 15 13.1071 15C2.39286 15 0.25 21.4286 0.25 23.5714C0.25 25.7143 2.39286 25.7143 2.39286 25.7143H13.6557Z" fill="white"/>
</svg>
