<svg width="1874" height="874" viewBox="0 0 1874 874" fill="none" xmlns="http://www.w3.org/2000/svg">
<path d="M52.4213 166.474L282.5 39.5145L512.58 166.474V420.392L282.5 547.353L52.4213 420.392V166.474Z" stroke="white"/>
<path d="M1764.42 249.465L1805.31 226.908L1846.21 249.465V294.578L1805.31 317.135L1764.42 294.578V249.465Z" stroke="white"/>
<path d="M1640.78 135.418L1757 71.2949L1873.22 135.418V263.663L1757 327.786L1640.78 263.663V135.418Z" stroke="white"/>
<path d="M-0.680005 834.842C-0.680005 823.802 1.71999 815.762 6.51999 810.722C11.24 805.602 17.76 803.042 26.08 803.042C29.84 803.042 33.44 803.602 36.88 804.722C40.24 805.842 43.28 807.722 46 810.362C48.64 812.922 50.72 816.322 52.24 820.562C53.76 824.802 54.52 830.042 54.52 836.282V844.082H85V862.202H-0.680005L-0.680005 834.842ZM14.2 835.802V844.082H39.64V838.082C39.64 834.642 39.2 831.682 38.32 829.202C37.44 826.722 36.04 824.802 34.12 823.442C32.2 822.082 29.72 821.402 26.68 821.402C22.44 821.402 19.32 822.562 17.32 824.882C15.24 827.202 14.2 830.842 14.2 835.802ZM85 737.531V786.851H-0.680005L-0.680005 737.531H14.2L14.2 768.731H33.04V739.691H47.92V768.731H70V737.531H85ZM-0.680005 665.582H14.32L14.32 701.582H85V719.702H-0.680005L-0.680005 665.582ZM-0.680005 652.437L-0.680005 636.117H40.72C42.72 636.117 44.96 636.157 47.44 636.237C49.92 636.317 52.36 636.397 54.76 636.477C57.08 636.557 59.12 636.637 60.88 636.717C62.56 636.797 63.72 636.877 64.36 636.957V636.597L-0.680005 596.997L-0.680005 575.277H85V591.477H43.84C41.68 591.477 39.32 591.437 36.76 591.357C34.12 591.277 31.6 591.197 29.2 591.117C26.8 590.957 24.72 590.837 22.96 590.757C21.12 590.597 19.92 590.477 19.36 590.397V590.877L85 630.597V652.437H-0.680005ZM13.24 517.288C13.24 520.728 13.92 523.808 15.28 526.528C16.64 529.168 18.6 531.408 21.16 533.248C23.64 535.088 26.68 536.488 30.28 537.448C33.88 538.328 37.92 538.768 42.4 538.768C48.48 538.768 53.68 538.048 58 536.608C62.24 535.088 65.48 532.728 67.72 529.528C69.96 526.328 71.08 522.248 71.08 517.288C71.08 513.768 70.68 510.288 69.88 506.848C69.08 503.328 67.96 499.528 66.52 495.448H81.76C83.28 499.208 84.4 502.928 85.12 506.608C85.84 510.288 86.2 514.408 86.2 518.968C86.2 527.768 84.4 535.048 80.8 540.808C77.12 546.488 72 550.688 65.44 553.408C58.8 556.128 51.08 557.488 42.28 557.488C35.8 557.488 29.88 556.608 24.52 554.848C19.08 553.088 14.4 550.528 10.48 547.168C6.55999 543.728 3.52 539.528 1.36 534.568C-0.800004 529.528 -1.88 523.768 -1.88 517.288C-1.88 513.048 -1.32 508.808 -0.200005 504.568C0.839996 500.248 2.28 496.128 4.12 492.208L18.88 498.088C17.36 501.288 16.04 504.528 14.92 507.808C13.8 511.008 13.24 514.168 13.24 517.288ZM85 444.241V462.361H14.44V485.641H-0.680005L-0.680005 420.961H14.44L14.44 444.241H85ZM-0.680005 380.389C-0.680005 369.349 1.71999 361.309 6.51999 356.269C11.24 351.149 17.76 348.589 26.08 348.589C29.84 348.589 33.44 349.149 36.88 350.269C40.24 351.389 43.28 353.269 46 355.909C48.64 358.469 50.72 361.869 52.24 366.109C53.76 370.349 54.52 375.589 54.52 381.829L54.52 389.629H85V407.749H-0.680005L-0.680005 380.389ZM14.2 381.349V389.629H39.64L39.64 383.629C39.64 380.189 39.2 377.229 38.32 374.749C37.44 372.269 36.04 370.349 34.12 368.989C32.2 367.629 29.72 366.949 26.68 366.949C22.44 366.949 19.32 368.109 17.32 370.429C15.24 372.749 14.2 376.389 14.2 381.349ZM85 285.934L64.6 292.174V323.374L85 329.614V349.174L-1.04 318.934L-1.04 296.734L85 266.374V285.934ZM29.44 302.734C28.08 303.134 26.36 303.654 24.28 304.294C22.2 304.934 20.08 305.574 17.92 306.214C15.76 306.854 13.88 307.374 12.28 307.774C13.88 308.174 15.88 308.734 18.28 309.454C20.6 310.094 22.84 310.734 25 311.374C27.08 311.934 28.56 312.374 29.44 312.694L49.36 318.814V296.494L29.44 302.734ZM70.6 175.003H109.96V192.523H85V255.523H-0.680005L-0.680005 237.403H69.88V205.843H-0.680005L-0.680005 187.723H70.6V175.003ZM-0.680005 161.773L-0.680005 145.453H40.72C42.72 145.453 44.96 145.493 47.44 145.573C49.92 145.653 52.36 145.733 54.76 145.813C57.08 145.893 59.12 145.973 60.88 146.053C62.56 146.133 63.72 146.213 64.36 146.293V145.933L-0.680005 106.333L-0.680005 84.6127H85V100.813H43.84C41.68 100.813 39.32 100.773 36.76 100.693C34.12 100.613 31.6 100.533 29.2 100.453C26.8 100.293 24.72 100.173 22.96 100.093C21.12 99.9327 19.92 99.8127 19.36 99.7327V100.213L85 139.933V161.773H-0.680005ZM52.12 34.1837L85 54.2237V74.3837L47.32 50.0237C46.36 52.3437 44.96 54.6637 43.12 56.9837C41.2 59.3037 38.68 61.2237 35.56 62.7437C32.36 64.2637 28.44 65.0237 23.8 65.0237C15.88 65.0237 9.83999 62.1837 5.68 56.5037C1.44 50.8237 -0.680005 42.8637 -0.680005 32.6237L-0.680005 4.7837H85V22.9037H52.12V34.1837ZM14.2 31.9037C14.2 35.0237 14.56 37.7037 15.28 39.9437C16 42.1037 17.16 43.7837 18.76 44.9837C20.36 46.1037 22.48 46.6637 25.12 46.6637C28.88 46.6637 31.88 45.4237 34.12 42.9437C36.28 40.3837 37.36 36.5437 37.36 31.4237V22.9037H14.2V31.9037Z" fill="white" fill-opacity="0.12"/>
<path d="M78.74 650.38C78.74 642.1 80.54 636.07 84.14 632.29C87.68 628.45 92.57 626.53 98.81 626.53C101.63 626.53 104.33 626.95 106.91 627.79C109.43 628.63 111.71 630.04 113.75 632.02C115.73 633.94 117.29 636.49 118.43 639.67C119.57 642.85 120.14 646.78 120.14 651.46V657.31H143V670.9H78.74V650.38ZM89.9 651.1V657.31H108.98V652.81C108.98 650.23 108.65 648.01 107.99 646.15C107.33 644.29 106.28 642.85 104.84 641.83C103.4 640.81 101.54 640.3 99.26 640.3C96.08 640.3 93.74 641.17 92.24 642.91C90.68 644.65 89.9 647.38 89.9 651.1ZM143 577.396V614.386H78.74V577.396H89.9L89.9 600.796L104.03 600.796V579.016H115.19L115.19 600.796H131.75V577.396H143ZM78.74 523.435H89.99L89.99 550.435L143 550.435L143 564.025H78.74L78.74 523.435ZM78.74 513.576V501.336H109.79C111.29 501.336 112.97 501.366 114.83 501.426C116.69 501.486 118.52 501.546 120.32 501.606C122.06 501.666 123.59 501.726 124.91 501.786C126.17 501.846 127.04 501.906 127.52 501.966V501.696L78.74 471.996V455.706L143 455.706V467.856H112.13C110.51 467.856 108.74 467.826 106.82 467.766C104.84 467.706 102.95 467.646 101.15 467.586C99.35 467.466 97.79 467.376 96.47 467.316C95.09 467.196 94.19 467.106 93.77 467.046V467.406L143 497.196V513.576H78.74ZM89.18 412.214C89.18 414.794 89.69 417.104 90.71 419.144C91.73 421.124 93.2 422.804 95.12 424.184C96.98 425.564 99.26 426.614 101.96 427.334C104.66 427.994 107.69 428.324 111.05 428.324C115.61 428.324 119.51 427.784 122.75 426.704C125.93 425.564 128.36 423.794 130.04 421.394C131.72 418.994 132.56 415.934 132.56 412.214C132.56 409.574 132.26 406.964 131.66 404.384C131.06 401.744 130.22 398.894 129.14 395.834H140.57C141.71 398.654 142.55 401.444 143.09 404.204C143.63 406.964 143.9 410.054 143.9 413.474C143.9 420.074 142.55 425.534 139.85 429.854C137.09 434.114 133.25 437.264 128.33 439.304C123.35 441.344 117.56 442.364 110.96 442.364C106.1 442.364 101.66 441.704 97.64 440.384C93.56 439.064 90.05 437.144 87.11 434.624C84.17 432.044 81.89 428.894 80.27 425.174C78.65 421.394 77.84 417.074 77.84 412.214C77.84 409.034 78.26 405.854 79.1 402.674C79.88 399.434 80.96 396.344 82.34 393.404L93.41 397.814C92.27 400.214 91.28 402.644 90.44 405.104C89.6 407.504 89.18 409.874 89.18 412.214ZM143 357.429V371.019H90.08V388.479H78.74L78.74 339.969H90.08L90.08 357.429H143ZM78.74 309.54C78.74 301.26 80.54 295.23 84.14 291.45C87.68 287.61 92.57 285.69 98.81 285.69C101.63 285.69 104.33 286.11 106.91 286.95C109.43 287.79 111.71 289.2 113.75 291.18C115.73 293.1 117.29 295.65 118.43 298.83C119.57 302.01 120.14 305.94 120.14 310.62V316.47H143V330.06H78.74V309.54ZM89.9 310.26L89.9 316.47H108.98V311.97C108.98 309.39 108.65 307.17 107.99 305.31C107.33 303.45 106.28 302.01 104.84 300.99C103.4 299.97 101.54 299.46 99.26 299.46C96.08 299.46 93.74 300.33 92.24 302.07C90.68 303.81 89.9 306.54 89.9 310.26ZM143 238.699L127.7 243.379L127.7 266.779L143 271.459V286.129L78.47 263.449L78.47 246.799L143 224.029V238.699ZM101.33 251.299C100.31 251.599 99.02 251.989 97.46 252.469C95.9 252.949 94.31 253.429 92.69 253.909C91.07 254.389 89.66 254.779 88.46 255.079C89.66 255.379 91.16 255.799 92.96 256.339C94.7 256.819 96.38 257.299 98 257.779C99.56 258.199 100.67 258.529 101.33 258.769L116.27 263.359L116.27 246.619L101.33 251.299ZM132.2 155.5H161.72V168.64H143L143 215.89H78.74V202.3H131.66V178.63H78.74V165.04H132.2V155.5ZM78.74 145.578V133.338H109.79C111.29 133.338 112.97 133.368 114.83 133.428C116.69 133.488 118.52 133.548 120.32 133.608C122.06 133.668 123.59 133.728 124.91 133.788C126.17 133.848 127.04 133.908 127.52 133.968V133.698L78.74 103.998L78.74 87.7078H143V99.8578H112.13C110.51 99.8578 108.74 99.8278 106.82 99.7678C104.84 99.7078 102.95 99.6478 101.15 99.5878C99.35 99.4678 97.79 99.3778 96.47 99.3178C95.09 99.1978 94.19 99.1078 93.77 99.0478V99.4078L143 129.198V145.578H78.74ZM118.34 49.886L143 64.916V80.036L114.74 61.766C114.02 63.506 112.97 65.246 111.59 66.986C110.15 68.726 108.26 70.166 105.92 71.306C103.52 72.446 100.58 73.016 97.1 73.016C91.16 73.016 86.63 70.886 83.51 66.626C80.33 62.366 78.74 56.396 78.74 48.716L78.74 27.836H143V41.426H118.34V49.886ZM89.9 48.176C89.9 50.516 90.17 52.526 90.71 54.206C91.25 55.826 92.12 57.086 93.32 57.986C94.52 58.826 96.11 59.246 98.09 59.246C100.91 59.246 103.16 58.316 104.84 56.456C106.46 54.536 107.27 51.656 107.27 47.816V41.426H89.9V48.176Z" fill="white"/>
</svg>
