<svg width="50" height="50" viewBox="0 0 50 50" fill="none" xmlns="http://www.w3.org/2000/svg">
<path fill-rule="evenodd" clip-rule="evenodd" d="M50 25C50 38.8071 38.8071 50 25 50C11.1929 50 0 38.8071 0 25C0 11.1929 11.1929 0 25 0C38.8071 0 50 11.1929 50 25ZM39.9987 17.0312C40.0063 17.1875 39.9788 17.3625 39.9212 17.5513C39.573 19.2406 36.5044 23.7359 35.576 25.096C35.4046 25.347 35.3062 25.4912 35.3112 25.4912C35.1313 25.7987 35.0112 26.0187 35 26.25C34.9888 26.47 35.0775 26.7 35.3112 27.0263C35.66 27.5263 36.4188 28.4463 37.1875 29.375C38.575 31.0525 39.6875 32.8125 39.93 33.5325C39.9813 33.7288 40.0037 33.905 40 34.0625C39.9825 34.6813 39.5462 35 38.7862 35H35.5137C34.6518 35 34.1993 34.4068 33.2771 33.1978C32.8727 32.6676 32.378 32.019 31.7188 31.25C29.8438 29.0625 28.8725 28.75 28.3962 28.75C27.7287 28.75 27.5 28.9163 27.4988 29.9175V33.6325C27.4988 34.4663 27.2838 35 25.1863 35C21.7238 35 17.8125 32.6562 14.8438 28.5938C10.75 22.9913 10 18.1187 10 17.2175C10 16.7175 10.1588 16.25 11.1125 16.25H14.4163C15.2425 16.25 15.56 16.6175 15.8775 17.585C17.3438 22.5 19.5338 26.25 20.6462 26.25C21.0588 26.25 21.25 26.05 21.25 24.95V20.4212C21.1714 18.9801 20.7141 18.3519 20.3753 17.8863C20.1648 17.5971 20 17.3707 20 17.0513C20 16.65 20.265 16.25 20.7738 16.25H26.585C27.2837 16.25 27.5 16.65 27.5 17.5175V23.9987C27.5 24.7325 28.0588 25 28.28 25C28.2898 25 28.2996 25 28.3094 25C28.7112 25.0005 29.0981 25.0009 29.8425 24.2188C32.1938 21.45 34.2337 17.2513 34.2337 17.2513C34.4562 16.75 34.8375 16.25 35.6637 16.25H38.9362C39.6687 16.25 39.98 16.5788 39.9987 17.0312Z" fill="white"/>
</svg>
